<svg xmlns="http://www.w3.org/2000/svg" xmlns:xlink="http://www.w3.org/1999/xlink" width="60" zoomAndPan="magnify" viewBox="0 0 45 44.999999" height="60" preserveAspectRatio="xMidYMid meet" version="1.0"><defs><clipPath id="39932fde52"><path d="M 6 7 L 41 7 L 41 41.824219 L 6 41.824219 Z M 6 7 " clip-rule="nonzero"/></clipPath><clipPath id="2c05272be8"><path d="M 41 4 L 45 4 L 45 41.824219 L 41 41.824219 Z M 41 4 " clip-rule="nonzero"/></clipPath><clipPath id="d93c65118a"><path d="M 0 6 L 7 6 L 7 41.824219 L 0 41.824219 Z M 0 6 " clip-rule="nonzero"/></clipPath></defs><g clip-path="url(#39932fde52)"><path fill="#ec6408" d="M 23.390625 7.632812 C 13.882812 7.632812 6.175781 15.273438 6.175781 24.695312 C 6.175781 34.117188 13.882812 41.753906 23.390625 41.753906 C 32.894531 41.753906 40.601562 34.117188 40.601562 24.695312 C 40.601562 15.273438 32.894531 7.632812 23.390625 7.632812 Z M 23.390625 38.214844 C 15.851562 38.214844 9.742188 32.160156 9.742188 24.691406 C 9.742188 17.222656 15.851562 11.167969 23.390625 11.167969 C 30.925781 11.167969 37.035156 17.222656 37.035156 24.691406 C 37.035156 32.160156 30.925781 38.214844 23.390625 38.214844 Z M 23.390625 38.214844 " fill-opacity="1" fill-rule="nonzero"/></g><path fill="#ec6408" d="M 35.441406 24.691406 C 35.441406 25.476562 35.363281 26.253906 35.207031 27.023438 C 35.054688 27.792969 34.824219 28.539062 34.523438 29.261719 C 34.21875 29.988281 33.847656 30.675781 33.410156 31.328125 C 32.96875 31.980469 32.46875 32.582031 31.910156 33.136719 C 31.351562 33.691406 30.742188 34.1875 30.085938 34.625 C 29.425781 35.058594 28.730469 35.425781 28 35.726562 C 27.269531 36.027344 26.515625 36.253906 25.738281 36.40625 C 24.964844 36.558594 24.179688 36.636719 23.390625 36.636719 C 22.597656 36.636719 21.8125 36.558594 21.039062 36.40625 C 20.261719 36.253906 19.507812 36.027344 18.777344 35.726562 C 18.046875 35.425781 17.351562 35.058594 16.695312 34.625 C 16.035156 34.1875 15.425781 33.691406 14.867188 33.136719 C 14.308594 32.582031 13.808594 31.980469 13.367188 31.328125 C 12.929688 30.675781 12.558594 29.988281 12.253906 29.261719 C 11.953125 28.539062 11.722656 27.792969 11.570312 27.023438 C 11.414062 26.253906 11.335938 25.476562 11.335938 24.691406 C 11.335938 23.910156 11.414062 23.132812 11.570312 22.363281 C 11.722656 21.59375 11.953125 20.847656 12.253906 20.121094 C 12.558594 19.398438 12.929688 18.710938 13.367188 18.058594 C 13.808594 17.40625 14.308594 16.800781 14.867188 16.246094 C 15.425781 15.691406 16.035156 15.199219 16.695312 14.761719 C 17.351562 14.324219 18.046875 13.957031 18.777344 13.65625 C 19.507812 13.359375 20.261719 13.132812 21.039062 12.976562 C 21.8125 12.824219 22.597656 12.75 23.390625 12.75 C 24.179688 12.75 24.964844 12.824219 25.738281 12.976562 C 26.515625 13.132812 27.269531 13.359375 28 13.65625 C 28.730469 13.957031 29.425781 14.324219 30.085938 14.761719 C 30.742188 15.199219 31.351562 15.691406 31.910156 16.246094 C 32.46875 16.800781 32.96875 17.40625 33.410156 18.058594 C 33.847656 18.710938 34.21875 19.398438 34.523438 20.121094 C 34.824219 20.847656 35.054688 21.59375 35.207031 22.363281 C 35.363281 23.132812 35.441406 23.910156 35.441406 24.691406 Z M 35.441406 24.691406 " fill-opacity="1" fill-rule="nonzero"/><g clip-path="url(#2c05272be8)"><path fill="#ec6408" d="M 42.949219 6.488281 C 40.796875 10.324219 40.847656 14.09375 42.433594 18.964844 C 42.433594 18.964844 43.148438 21.261719 42.621094 23.191406 C 42.484375 23.679688 42.433594 24.191406 42.433594 24.699219 L 42.433594 40.480469 C 42.433594 41.222656 43.085938 41.824219 43.851562 41.746094 C 44.515625 41.675781 45.003906 41.082031 45.003906 40.417969 L 45.003906 6.492188 C 45.007812 6.488281 45.007812 2.828125 42.949219 6.488281 Z M 42.949219 6.488281 " fill-opacity="1" fill-rule="nonzero"/></g><g clip-path="url(#d93c65118a)"><path fill="#ec6408" d="M 5.574219 6.648438 L 5.503906 6.648438 C 5.171875 6.648438 4.902344 13.5 4.902344 13.5 C 4.902344 13.785156 4.6875 14.027344 4.402344 14.070312 C 4.054688 14.121094 3.738281 13.851562 3.738281 13.5 C 3.738281 13.5 3.46875 6.648438 3.136719 6.648438 L 3.054688 6.648438 C 2.722656 6.648438 2.453125 13.503906 2.453125 13.503906 C 2.453125 13.851562 2.144531 14.121094 1.792969 14.074219 L 1.722656 14.066406 C 1.433594 14.023438 1.21875 13.78125 1.21875 13.492188 C 1.21875 13.492188 0.949219 6.644531 0.617188 6.644531 C 0.285156 6.644531 0.015625 14.113281 0.015625 14.113281 C 0.015625 15.046875 0.222656 16.484375 1.246094 17.320312 C 1.851562 17.816406 1.996094 18.359375 2.007812 18.585938 L 2.007812 40.476562 C 2.007812 41.175781 2.585938 41.75 3.292969 41.75 C 3.996094 41.75 4.574219 41.175781 4.574219 40.476562 L 4.574219 18.679688 L 4.578125 18.679688 C 4.574219 18.632812 4.578125 18.589844 4.574219 18.542969 L 4.574219 18.386719 C 4.605469 17.773438 4.859375 17.421875 5.136719 17.191406 C 6.183594 16.328125 6.183594 14.980469 6.183594 14.125 C 6.175781 14.125 5.90625 6.648438 5.574219 6.648438 Z M 5.574219 6.648438 " fill-opacity="1" fill-rule="nonzero"/></g></svg>