<svg xmlns="http://www.w3.org/2000/svg" xmlns:xlink="http://www.w3.org/1999/xlink" width="190" zoomAndPan="magnify" viewBox="0 0 142.5 30.000001" height="40" preserveAspectRatio="xMidYMid meet" version="1.0"><defs><g/><clipPath id="6650cfca40"><path d="M 9 3 L 34 3 L 34 27.582031 L 9 27.582031 Z M 9 3 " clip-rule="nonzero"/></clipPath><clipPath id="bcdd36cf36"><path d="M 34 1 L 36.894531 1 L 36.894531 27.582031 L 34 27.582031 Z M 34 1 " clip-rule="nonzero"/></clipPath><clipPath id="cb24373342"><path d="M 4.960938 2 L 10 2 L 10 27.582031 L 4.960938 27.582031 Z M 4.960938 2 " clip-rule="nonzero"/></clipPath></defs><g fill="#000000" fill-opacity="1"><g transform="translate(39.033637, 21.718852)"><g><path d="M 4.859375 0 L 1.96875 0 L 1.96875 -15.109375 L 5.375 -15.109375 L 11.453125 -5.375 L 11.71875 -5.40625 L 11.71875 -15.109375 L 14.59375 -15.109375 L 14.59375 0 L 11.53125 0 L 5.109375 -10.390625 L 4.859375 -10.34375 Z M 4.859375 0 "/></g></g><g transform="translate(55.590549, 21.718852)"><g><path d="M 5.21875 0.21875 C 3.9375 0.21875 2.988281 -0.128906 2.375 -0.828125 C 1.769531 -1.523438 1.46875 -2.53125 1.46875 -3.84375 L 1.46875 -11.390625 L 4.328125 -11.390625 L 4.328125 -4.203125 C 4.328125 -3.503906 4.476562 -2.992188 4.78125 -2.671875 C 5.082031 -2.359375 5.546875 -2.203125 6.171875 -2.203125 C 6.960938 -2.203125 7.578125 -2.460938 8.015625 -2.984375 C 8.453125 -3.503906 8.671875 -4.320312 8.671875 -5.4375 L 8.671875 -11.390625 L 11.53125 -11.390625 L 11.53125 0 L 8.796875 0 L 8.796875 -1.671875 L 8.578125 -1.71875 C 8.210938 -1.070312 7.765625 -0.585938 7.234375 -0.265625 C 6.710938 0.0546875 6.039062 0.21875 5.21875 0.21875 Z M 5.21875 0.21875 "/></g></g><g transform="translate(68.769975, 21.718852)"><g><path d="M 7.859375 -2.71875 L 8.609375 -0.59375 C 8.296875 -0.34375 7.90625 -0.144531 7.4375 0 C 6.96875 0.144531 6.4375 0.21875 5.84375 0.21875 C 4.613281 0.21875 3.675781 -0.113281 3.03125 -0.78125 C 2.394531 -1.457031 2.078125 -2.4375 2.078125 -3.71875 L 2.078125 -9.125 L 0.34375 -9.125 L 0.34375 -11.40625 L 2.078125 -11.40625 L 2.078125 -13.625 L 4.9375 -14.09375 L 4.9375 -11.40625 L 8.171875 -11.40625 L 8.171875 -9.125 L 4.9375 -9.125 L 4.9375 -3.921875 C 4.9375 -3.359375 5.050781 -2.945312 5.28125 -2.6875 C 5.519531 -2.425781 5.863281 -2.296875 6.3125 -2.296875 C 6.820312 -2.296875 7.265625 -2.4375 7.640625 -2.71875 Z M 7.859375 -2.71875 "/></g></g><g transform="translate(77.621674, 21.718852)"><g><path d="M 1.640625 0 L 1.640625 -11.390625 L 4.421875 -11.390625 L 4.421875 -9.703125 L 4.640625 -9.65625 C 4.910156 -10.289062 5.269531 -10.753906 5.71875 -11.046875 C 6.164062 -11.347656 6.710938 -11.5 7.359375 -11.5 C 8.003906 -11.5 8.492188 -11.390625 8.828125 -11.171875 L 8.34375 -8.703125 L 8.125 -8.65625 C 7.9375 -8.726562 7.753906 -8.78125 7.578125 -8.8125 C 7.410156 -8.851562 7.207031 -8.875 6.96875 -8.875 C 6.164062 -8.875 5.550781 -8.59375 5.125 -8.03125 C 4.707031 -7.46875 4.5 -6.566406 4.5 -5.328125 L 4.5 0 Z M 1.640625 0 "/></g></g><g transform="translate(86.556003, 21.718852)"><g><path d="M 3.0625 -12.75 C 2.550781 -12.75 2.132812 -12.90625 1.8125 -13.21875 C 1.488281 -13.539062 1.328125 -13.945312 1.328125 -14.4375 C 1.328125 -14.925781 1.488281 -15.328125 1.8125 -15.640625 C 2.132812 -15.953125 2.550781 -16.109375 3.0625 -16.109375 C 3.40625 -16.109375 3.710938 -16.035156 3.984375 -15.890625 C 4.253906 -15.753906 4.460938 -15.554688 4.609375 -15.296875 C 4.753906 -15.046875 4.828125 -14.757812 4.828125 -14.4375 C 4.828125 -14.113281 4.753906 -13.820312 4.609375 -13.5625 C 4.460938 -13.3125 4.253906 -13.113281 3.984375 -12.96875 C 3.710938 -12.820312 3.40625 -12.75 3.0625 -12.75 Z M 1.640625 0 L 1.640625 -11.390625 L 4.5 -11.390625 L 4.5 0 Z M 1.640625 0 "/></g></g><g transform="translate(92.691253, 21.718852)"><g><path d="M 1.640625 4.625 L 1.640625 -11.390625 L 4.5 -11.390625 L 4.5 -9.90625 L 4.71875 -9.859375 C 5.0625 -10.441406 5.515625 -10.878906 6.078125 -11.171875 C 6.640625 -11.460938 7.300781 -11.609375 8.0625 -11.609375 C 8.976562 -11.609375 9.773438 -11.390625 10.453125 -10.953125 C 11.140625 -10.523438 11.675781 -9.867188 12.0625 -8.984375 C 12.445312 -8.097656 12.640625 -7 12.640625 -5.6875 C 12.640625 -4.382812 12.4375 -3.289062 12.03125 -2.40625 C 11.625 -1.53125 11.0625 -0.875 10.34375 -0.4375 C 9.632812 0 8.8125 0.21875 7.875 0.21875 C 7.164062 0.21875 6.550781 0.0976562 6.03125 -0.140625 C 5.519531 -0.378906 5.082031 -0.75 4.71875 -1.25 L 4.5 -1.203125 L 4.5 4.625 Z M 7.078125 -2.203125 C 7.929688 -2.203125 8.578125 -2.484375 9.015625 -3.046875 C 9.453125 -3.609375 9.671875 -4.488281 9.671875 -5.6875 C 9.671875 -6.894531 9.453125 -7.78125 9.015625 -8.34375 C 8.578125 -8.90625 7.929688 -9.1875 7.078125 -9.1875 C 6.273438 -9.1875 5.640625 -8.894531 5.171875 -8.3125 C 4.703125 -7.738281 4.46875 -6.863281 4.46875 -5.6875 C 4.46875 -4.53125 4.703125 -3.660156 5.171875 -3.078125 C 5.640625 -2.492188 6.273438 -2.203125 7.078125 -2.203125 Z M 7.078125 -2.203125 "/></g></g><g transform="translate(106.33547, 21.718852)"><g><path d="M 4.734375 0.21875 C 3.703125 0.21875 2.914062 -0.0546875 2.375 -0.609375 C 1.832031 -1.171875 1.5625 -2.015625 1.5625 -3.140625 L 1.5625 -15.96875 L 4.4375 -15.96875 L 4.4375 -3.25 C 4.4375 -2.550781 4.722656 -2.203125 5.296875 -2.203125 C 5.460938 -2.203125 5.640625 -2.234375 5.828125 -2.296875 L 5.96875 -2.25 L 6.234375 -0.046875 C 6.066406 0.0351562 5.851562 0.0976562 5.59375 0.140625 C 5.332031 0.191406 5.046875 0.21875 4.734375 0.21875 Z M 4.734375 0.21875 "/></g></g><g transform="translate(112.883868, 21.718852)"><g><path d="M 4.4375 0.21875 C 3.707031 0.21875 3.070312 0.0820312 2.53125 -0.1875 C 2 -0.457031 1.585938 -0.851562 1.296875 -1.375 C 1.015625 -1.894531 0.875 -2.519531 0.875 -3.25 C 0.875 -3.914062 1.015625 -4.476562 1.296875 -4.9375 C 1.585938 -5.394531 2.035156 -5.769531 2.640625 -6.0625 C 3.242188 -6.363281 4.035156 -6.59375 5.015625 -6.75 C 5.703125 -6.851562 6.222656 -6.96875 6.578125 -7.09375 C 6.929688 -7.226562 7.171875 -7.378906 7.296875 -7.546875 C 7.421875 -7.710938 7.484375 -7.925781 7.484375 -8.1875 C 7.484375 -8.550781 7.351562 -8.828125 7.09375 -9.015625 C 6.84375 -9.210938 6.421875 -9.3125 5.828125 -9.3125 C 5.191406 -9.3125 4.585938 -9.164062 4.015625 -8.875 C 3.441406 -8.59375 2.945312 -8.222656 2.53125 -7.765625 L 2.328125 -7.765625 L 1.125 -9.578125 C 1.707031 -10.210938 2.414062 -10.707031 3.25 -11.0625 C 4.082031 -11.425781 4.988281 -11.609375 5.96875 -11.609375 C 7.476562 -11.609375 8.570312 -11.285156 9.25 -10.640625 C 9.925781 -10.003906 10.265625 -9.097656 10.265625 -7.921875 L 10.265625 -2.96875 C 10.265625 -2.457031 10.484375 -2.203125 10.921875 -2.203125 C 11.097656 -2.203125 11.269531 -2.234375 11.4375 -2.296875 L 11.578125 -2.265625 L 11.78125 -0.265625 C 11.625 -0.160156 11.40625 -0.078125 11.125 -0.015625 C 10.84375 0.046875 10.535156 0.078125 10.203125 0.078125 C 9.515625 0.078125 8.976562 -0.0507812 8.59375 -0.3125 C 8.21875 -0.570312 7.945312 -0.984375 7.78125 -1.546875 L 7.5625 -1.5625 C 7 -0.375 5.957031 0.21875 4.4375 0.21875 Z M 5.34375 -1.921875 C 6.007812 -1.921875 6.539062 -2.140625 6.9375 -2.578125 C 7.332031 -3.023438 7.53125 -3.644531 7.53125 -4.4375 L 7.53125 -5.59375 L 7.328125 -5.640625 C 7.160156 -5.503906 6.9375 -5.390625 6.65625 -5.296875 C 6.375 -5.203125 5.972656 -5.109375 5.453125 -5.015625 C 4.835938 -4.910156 4.390625 -4.734375 4.109375 -4.484375 C 3.835938 -4.234375 3.703125 -3.878906 3.703125 -3.421875 C 3.703125 -2.929688 3.847656 -2.554688 4.140625 -2.296875 C 4.429688 -2.046875 4.832031 -1.921875 5.34375 -1.921875 Z M 5.34375 -1.921875 "/></g></g><g transform="translate(124.89615, 21.718852)"><g><path d="M 1.640625 0 L 1.640625 -11.390625 L 4.390625 -11.390625 L 4.390625 -9.71875 L 4.609375 -9.671875 C 5.316406 -10.960938 6.46875 -11.609375 8.0625 -11.609375 C 9.375 -11.609375 10.335938 -11.25 10.953125 -10.53125 C 11.566406 -9.820312 11.875 -8.78125 11.875 -7.40625 L 11.875 0 L 9.015625 0 L 9.015625 -7.0625 C 9.015625 -7.8125 8.863281 -8.351562 8.5625 -8.6875 C 8.257812 -9.019531 7.773438 -9.1875 7.109375 -9.1875 C 6.285156 -9.1875 5.644531 -8.921875 5.1875 -8.390625 C 4.726562 -7.867188 4.5 -7.039062 4.5 -5.90625 L 4.5 0 Z M 1.640625 0 "/></g></g></g><g clip-path="url(#6650cfca40)"><path fill="#ec6408" d="M 21.558594 3.402344 C 14.8125 3.402344 9.339844 8.804688 9.339844 15.46875 C 9.339844 22.128906 14.8125 27.53125 21.558594 27.53125 C 28.304688 27.53125 33.773438 22.128906 33.773438 15.46875 C 33.773438 8.804688 28.304688 3.402344 21.558594 3.402344 Z M 21.558594 25.03125 C 16.210938 25.03125 11.875 20.746094 11.875 15.464844 C 11.875 10.183594 16.210938 5.902344 21.558594 5.902344 C 26.90625 5.902344 31.242188 10.183594 31.242188 15.464844 C 31.242188 20.746094 26.90625 25.03125 21.558594 25.03125 Z M 21.558594 25.03125 " fill-opacity="1" fill-rule="nonzero"/></g><path fill="#ec6408" d="M 30.113281 15.464844 C 30.113281 16.019531 30.054688 16.570312 29.945312 17.113281 C 29.835938 17.65625 29.675781 18.1875 29.460938 18.699219 C 29.246094 19.210938 28.980469 19.699219 28.671875 20.160156 C 28.359375 20.621094 28.003906 21.046875 27.605469 21.4375 C 27.210938 21.832031 26.777344 22.179688 26.308594 22.488281 C 25.84375 22.796875 25.351562 23.058594 24.832031 23.269531 C 24.3125 23.480469 23.777344 23.640625 23.226562 23.75 C 22.675781 23.859375 22.121094 23.914062 21.558594 23.914062 C 20.996094 23.914062 20.441406 23.859375 19.890625 23.75 C 19.339844 23.640625 18.804688 23.480469 18.285156 23.269531 C 17.765625 23.058594 17.273438 22.796875 16.804688 22.488281 C 16.339844 22.179688 15.90625 21.832031 15.511719 21.4375 C 15.113281 21.046875 14.757812 20.621094 14.445312 20.160156 C 14.132812 19.699219 13.871094 19.210938 13.65625 18.699219 C 13.441406 18.1875 13.277344 17.65625 13.167969 17.113281 C 13.058594 16.570312 13.003906 16.019531 13.003906 15.464844 C 13.003906 14.910156 13.058594 14.363281 13.167969 13.816406 C 13.277344 13.273438 13.441406 12.746094 13.65625 12.234375 C 13.871094 11.722656 14.132812 11.234375 14.445312 10.773438 C 14.757812 10.3125 15.113281 9.886719 15.511719 9.492188 C 15.90625 9.101562 16.339844 8.75 16.804688 8.441406 C 17.273438 8.136719 17.765625 7.875 18.285156 7.664062 C 18.804688 7.449219 19.339844 7.289062 19.890625 7.183594 C 20.441406 7.074219 20.996094 7.019531 21.558594 7.019531 C 22.121094 7.019531 22.675781 7.074219 23.226562 7.183594 C 23.777344 7.289062 24.3125 7.449219 24.832031 7.664062 C 25.351562 7.875 25.84375 8.136719 26.308594 8.441406 C 26.777344 8.75 27.210938 9.101562 27.605469 9.492188 C 28.003906 9.886719 28.359375 10.3125 28.671875 10.773438 C 28.980469 11.234375 29.246094 11.722656 29.460938 12.234375 C 29.675781 12.746094 29.835938 13.273438 29.945312 13.816406 C 30.054688 14.363281 30.113281 14.910156 30.113281 15.464844 Z M 30.113281 15.464844 " fill-opacity="1" fill-rule="nonzero"/><g clip-path="url(#bcdd36cf36)"><path fill="#ec6408" d="M 35.441406 2.59375 C 33.914062 5.304688 33.949219 7.972656 35.078125 11.414062 C 35.078125 11.414062 35.582031 13.039062 35.207031 14.402344 C 35.113281 14.75 35.078125 15.109375 35.078125 15.46875 L 35.074219 26.628906 C 35.074219 27.15625 35.539062 27.582031 36.082031 27.527344 C 36.554688 27.476562 36.898438 27.054688 36.898438 26.585938 L 36.898438 2.59375 C 36.902344 2.59375 36.902344 0.00390625 35.441406 2.59375 Z M 35.441406 2.59375 " fill-opacity="1" fill-rule="nonzero"/></g><g clip-path="url(#cb24373342)"><path fill="#ec6408" d="M 8.914062 2.703125 L 8.863281 2.703125 C 8.628906 2.703125 8.4375 7.550781 8.4375 7.550781 C 8.4375 7.753906 8.285156 7.925781 8.082031 7.953125 C 7.835938 7.988281 7.609375 7.800781 7.609375 7.550781 C 7.609375 7.550781 7.417969 2.703125 7.183594 2.703125 L 7.128906 2.703125 C 6.890625 2.703125 6.699219 7.554688 6.699219 7.554688 C 6.699219 7.800781 6.480469 7.992188 6.230469 7.957031 L 6.179688 7.949219 C 5.976562 7.921875 5.824219 7.75 5.824219 7.546875 C 5.824219 7.546875 5.632812 2.703125 5.398438 2.703125 C 5.160156 2.703125 4.96875 7.984375 4.96875 7.984375 C 4.96875 8.644531 5.117188 9.660156 5.84375 10.25 C 6.273438 10.605469 6.375 10.988281 6.382812 11.148438 L 6.382812 26.628906 C 6.382812 27.121094 6.792969 27.527344 7.292969 27.527344 C 7.796875 27.527344 8.207031 27.121094 8.207031 26.628906 L 8.207031 11.214844 C 8.203125 11.179688 8.207031 11.148438 8.207031 11.117188 L 8.207031 11.007812 C 8.226562 10.570312 8.40625 10.324219 8.605469 10.164062 C 9.347656 9.550781 9.347656 8.597656 9.347656 7.992188 C 9.339844 7.992188 9.152344 2.703125 8.914062 2.703125 Z M 8.914062 2.703125 " fill-opacity="1" fill-rule="nonzero"/></g></svg>