<svg xmlns="http://www.w3.org/2000/svg" xmlns:xlink="http://www.w3.org/1999/xlink" width="190" zoomAndPan="magnify" viewBox="0 0 142.5 30.000001" height="40" preserveAspectRatio="xMidYMid meet" version="1.0"><defs><g/><clipPath id="49695315e9"><path d="M 10 3 L 35 3 L 35 27.476562 L 10 27.476562 Z M 10 3 " clip-rule="nonzero"/></clipPath><clipPath id="f2a8f57b9b"><path d="M 35 1 L 37.867188 1 L 37.867188 27.476562 L 35 27.476562 Z M 35 1 " clip-rule="nonzero"/></clipPath><clipPath id="bfe7666942"><path d="M 5.929688 2 L 11 2 L 11 27.476562 L 5.929688 27.476562 Z M 5.929688 2 " clip-rule="nonzero"/></clipPath></defs><g fill="#ffffff" fill-opacity="1"><g transform="translate(40.038454, 22.325202)"><g><path d="M 4.859375 0 L 1.96875 0 L 1.96875 -15.109375 L 5.375 -15.109375 L 11.453125 -5.375 L 11.71875 -5.40625 L 11.71875 -15.109375 L 14.59375 -15.109375 L 14.59375 0 L 11.53125 0 L 5.109375 -10.390625 L 4.859375 -10.34375 Z M 4.859375 0 "/></g></g></g><g fill="#ffffff" fill-opacity="1"><g transform="translate(56.584351, 22.325202)"><g><path d="M 5.21875 0.21875 C 3.9375 0.21875 2.988281 -0.128906 2.375 -0.828125 C 1.769531 -1.523438 1.46875 -2.53125 1.46875 -3.84375 L 1.46875 -11.390625 L 4.328125 -11.390625 L 4.328125 -4.203125 C 4.328125 -3.503906 4.476562 -2.992188 4.78125 -2.671875 C 5.082031 -2.359375 5.546875 -2.203125 6.171875 -2.203125 C 6.960938 -2.203125 7.578125 -2.460938 8.015625 -2.984375 C 8.453125 -3.503906 8.671875 -4.320312 8.671875 -5.4375 L 8.671875 -11.390625 L 11.53125 -11.390625 L 11.53125 0 L 8.796875 0 L 8.796875 -1.671875 L 8.578125 -1.71875 C 8.210938 -1.070312 7.765625 -0.585938 7.234375 -0.265625 C 6.710938 0.0546875 6.039062 0.21875 5.21875 0.21875 Z M 5.21875 0.21875 "/></g></g></g><g fill="#ffffff" fill-opacity="1"><g transform="translate(69.755009, 22.325202)"><g><path d="M 7.859375 -2.71875 L 8.609375 -0.59375 C 8.296875 -0.34375 7.90625 -0.144531 7.4375 0 C 6.96875 0.144531 6.4375 0.21875 5.84375 0.21875 C 4.613281 0.21875 3.675781 -0.113281 3.03125 -0.78125 C 2.394531 -1.457031 2.078125 -2.4375 2.078125 -3.71875 L 2.078125 -9.125 L 0.34375 -9.125 L 0.34375 -11.40625 L 2.078125 -11.40625 L 2.078125 -13.625 L 4.9375 -14.09375 L 4.9375 -11.40625 L 8.171875 -11.40625 L 8.171875 -9.125 L 4.9375 -9.125 L 4.9375 -3.921875 C 4.9375 -3.359375 5.050781 -2.945312 5.28125 -2.6875 C 5.519531 -2.425781 5.863281 -2.296875 6.3125 -2.296875 C 6.820312 -2.296875 7.265625 -2.4375 7.640625 -2.71875 Z M 7.859375 -2.71875 "/></g></g></g><g fill="#ffffff" fill-opacity="1"><g transform="translate(78.600819, 22.325202)"><g><path d="M 1.640625 0 L 1.640625 -11.390625 L 4.421875 -11.390625 L 4.421875 -9.703125 L 4.640625 -9.65625 C 4.910156 -10.289062 5.269531 -10.753906 5.71875 -11.046875 C 6.164062 -11.347656 6.710938 -11.5 7.359375 -11.5 C 8.003906 -11.5 8.492188 -11.390625 8.828125 -11.171875 L 8.34375 -8.703125 L 8.125 -8.65625 C 7.9375 -8.726562 7.753906 -8.78125 7.578125 -8.8125 C 7.410156 -8.851562 7.207031 -8.875 6.96875 -8.875 C 6.164062 -8.875 5.550781 -8.59375 5.125 -8.03125 C 4.707031 -7.46875 4.5 -6.566406 4.5 -5.328125 L 4.5 0 Z M 1.640625 0 "/></g></g></g><g fill="#ffffff" fill-opacity="1"><g transform="translate(87.529204, 22.325202)"><g><path d="M 3.0625 -12.75 C 2.550781 -12.75 2.132812 -12.90625 1.8125 -13.21875 C 1.488281 -13.539062 1.328125 -13.945312 1.328125 -14.4375 C 1.328125 -14.925781 1.488281 -15.328125 1.8125 -15.640625 C 2.132812 -15.953125 2.550781 -16.109375 3.0625 -16.109375 C 3.40625 -16.109375 3.710938 -16.035156 3.984375 -15.890625 C 4.253906 -15.753906 4.460938 -15.554688 4.609375 -15.296875 C 4.753906 -15.046875 4.828125 -14.757812 4.828125 -14.4375 C 4.828125 -14.113281 4.753906 -13.820312 4.609375 -13.5625 C 4.460938 -13.3125 4.253906 -13.113281 3.984375 -12.96875 C 3.710938 -12.820312 3.40625 -12.75 3.0625 -12.75 Z M 1.640625 0 L 1.640625 -11.390625 L 4.5 -11.390625 L 4.5 0 Z M 1.640625 0 "/></g></g></g><g fill="#ffffff" fill-opacity="1"><g transform="translate(93.660373, 22.325202)"><g><path d="M 1.640625 4.625 L 1.640625 -11.390625 L 4.5 -11.390625 L 4.5 -9.90625 L 4.71875 -9.859375 C 5.0625 -10.441406 5.515625 -10.878906 6.078125 -11.171875 C 6.640625 -11.460938 7.300781 -11.609375 8.0625 -11.609375 C 8.976562 -11.609375 9.773438 -11.390625 10.453125 -10.953125 C 11.140625 -10.523438 11.675781 -9.867188 12.0625 -8.984375 C 12.445312 -8.097656 12.640625 -7 12.640625 -5.6875 C 12.640625 -4.382812 12.4375 -3.289062 12.03125 -2.40625 C 11.625 -1.53125 11.0625 -0.875 10.34375 -0.4375 C 9.632812 0 8.8125 0.21875 7.875 0.21875 C 7.164062 0.21875 6.550781 0.0976562 6.03125 -0.140625 C 5.519531 -0.378906 5.082031 -0.75 4.71875 -1.25 L 4.5 -1.203125 L 4.5 4.625 Z M 7.078125 -2.203125 C 7.929688 -2.203125 8.578125 -2.484375 9.015625 -3.046875 C 9.453125 -3.609375 9.671875 -4.488281 9.671875 -5.6875 C 9.671875 -6.894531 9.453125 -7.78125 9.015625 -8.34375 C 8.578125 -8.90625 7.929688 -9.1875 7.078125 -9.1875 C 6.273438 -9.1875 5.640625 -8.894531 5.171875 -8.3125 C 4.703125 -7.738281 4.46875 -6.863281 4.46875 -5.6875 C 4.46875 -4.53125 4.703125 -3.660156 5.171875 -3.078125 C 5.640625 -2.492188 6.273438 -2.203125 7.078125 -2.203125 Z M 7.078125 -2.203125 "/></g></g></g><g fill="#ffffff" fill-opacity="1"><g transform="translate(107.295513, 22.325202)"><g><path d="M 4.734375 0.21875 C 3.703125 0.21875 2.914062 -0.0546875 2.375 -0.609375 C 1.832031 -1.171875 1.5625 -2.015625 1.5625 -3.140625 L 1.5625 -15.96875 L 4.4375 -15.96875 L 4.4375 -3.25 C 4.4375 -2.550781 4.722656 -2.203125 5.296875 -2.203125 C 5.460938 -2.203125 5.640625 -2.234375 5.828125 -2.296875 L 5.96875 -2.25 L 6.234375 -0.046875 C 6.066406 0.0351562 5.851562 0.0976562 5.59375 0.140625 C 5.332031 0.191406 5.046875 0.21875 4.734375 0.21875 Z M 4.734375 0.21875 "/></g></g></g><g fill="#ffffff" fill-opacity="1"><g transform="translate(113.839555, 22.325202)"><g><path d="M 4.4375 0.21875 C 3.707031 0.21875 3.070312 0.0820312 2.53125 -0.1875 C 2 -0.457031 1.585938 -0.851562 1.296875 -1.375 C 1.015625 -1.894531 0.875 -2.519531 0.875 -3.25 C 0.875 -3.914062 1.015625 -4.476562 1.296875 -4.9375 C 1.585938 -5.394531 2.035156 -5.769531 2.640625 -6.0625 C 3.242188 -6.363281 4.035156 -6.59375 5.015625 -6.75 C 5.703125 -6.851562 6.222656 -6.96875 6.578125 -7.09375 C 6.929688 -7.226562 7.171875 -7.378906 7.296875 -7.546875 C 7.421875 -7.710938 7.484375 -7.925781 7.484375 -8.1875 C 7.484375 -8.550781 7.351562 -8.828125 7.09375 -9.015625 C 6.84375 -9.210938 6.421875 -9.3125 5.828125 -9.3125 C 5.191406 -9.3125 4.585938 -9.164062 4.015625 -8.875 C 3.441406 -8.59375 2.945312 -8.222656 2.53125 -7.765625 L 2.328125 -7.765625 L 1.125 -9.578125 C 1.707031 -10.210938 2.414062 -10.707031 3.25 -11.0625 C 4.082031 -11.425781 4.988281 -11.609375 5.96875 -11.609375 C 7.476562 -11.609375 8.570312 -11.285156 9.25 -10.640625 C 9.925781 -10.003906 10.265625 -9.097656 10.265625 -7.921875 L 10.265625 -2.96875 C 10.265625 -2.457031 10.484375 -2.203125 10.921875 -2.203125 C 11.097656 -2.203125 11.269531 -2.234375 11.4375 -2.296875 L 11.578125 -2.265625 L 11.78125 -0.265625 C 11.625 -0.160156 11.40625 -0.078125 11.125 -0.015625 C 10.84375 0.046875 10.535156 0.078125 10.203125 0.078125 C 9.515625 0.078125 8.976562 -0.0507812 8.59375 -0.3125 C 8.21875 -0.570312 7.945312 -0.984375 7.78125 -1.546875 L 7.5625 -1.5625 C 7 -0.375 5.957031 0.21875 4.4375 0.21875 Z M 5.34375 -1.921875 C 6.007812 -1.921875 6.539062 -2.140625 6.9375 -2.578125 C 7.332031 -3.023438 7.53125 -3.644531 7.53125 -4.4375 L 7.53125 -5.59375 L 7.328125 -5.640625 C 7.160156 -5.503906 6.9375 -5.390625 6.65625 -5.296875 C 6.375 -5.203125 5.972656 -5.109375 5.453125 -5.015625 C 4.835938 -4.910156 4.390625 -4.734375 4.109375 -4.484375 C 3.835938 -4.234375 3.703125 -3.878906 3.703125 -3.421875 C 3.703125 -2.929688 3.847656 -2.554688 4.140625 -2.296875 C 4.429688 -2.046875 4.832031 -1.921875 5.34375 -1.921875 Z M 5.34375 -1.921875 "/></g></g></g><g fill="#ffffff" fill-opacity="1"><g transform="translate(125.843846, 22.325202)"><g><path d="M 1.640625 0 L 1.640625 -11.390625 L 4.390625 -11.390625 L 4.390625 -9.71875 L 4.609375 -9.671875 C 5.316406 -10.960938 6.46875 -11.609375 8.0625 -11.609375 C 9.375 -11.609375 10.335938 -11.25 10.953125 -10.53125 C 11.566406 -9.820312 11.875 -8.78125 11.875 -7.40625 L 11.875 0 L 9.015625 0 L 9.015625 -7.0625 C 9.015625 -7.8125 8.863281 -8.351562 8.5625 -8.6875 C 8.257812 -9.019531 7.773438 -9.1875 7.109375 -9.1875 C 6.285156 -9.1875 5.644531 -8.921875 5.1875 -8.390625 C 4.726562 -7.867188 4.5 -7.039062 4.5 -5.90625 L 4.5 0 Z M 1.640625 0 "/></g></g></g><g clip-path="url(#49695315e9)"><path fill="#ec6408" d="M 22.53125 3.300781 C 15.78125 3.300781 10.3125 8.699219 10.3125 15.363281 C 10.3125 22.027344 15.78125 27.429688 22.53125 27.429688 C 29.277344 27.429688 34.746094 22.027344 34.746094 15.363281 C 34.746094 8.699219 29.277344 3.300781 22.53125 3.300781 Z M 22.53125 24.925781 C 17.179688 24.925781 12.84375 20.644531 12.84375 15.363281 C 12.84375 10.082031 17.179688 5.796875 22.53125 5.796875 C 27.878906 5.796875 32.214844 10.082031 32.214844 15.363281 C 32.214844 20.644531 27.878906 24.925781 22.53125 24.925781 Z M 22.53125 24.925781 " fill-opacity="1" fill-rule="nonzero"/></g><path fill="#ec6408" d="M 31.082031 15.363281 C 31.082031 15.917969 31.027344 16.464844 30.917969 17.011719 C 30.808594 17.554688 30.648438 18.082031 30.433594 18.59375 C 30.21875 19.109375 29.953125 19.59375 29.640625 20.054688 C 29.328125 20.515625 28.976562 20.941406 28.578125 21.335938 C 28.179688 21.726562 27.75 22.078125 27.28125 22.386719 C 26.816406 22.695312 26.320312 22.953125 25.804688 23.167969 C 25.285156 23.378906 24.75 23.539062 24.199219 23.648438 C 23.648438 23.753906 23.089844 23.808594 22.53125 23.808594 C 21.96875 23.808594 21.410156 23.753906 20.859375 23.648438 C 20.308594 23.539062 19.777344 23.378906 19.257812 23.167969 C 18.738281 22.953125 18.246094 22.695312 17.777344 22.386719 C 17.3125 22.078125 16.878906 21.726562 16.480469 21.335938 C 16.085938 20.941406 15.730469 20.515625 15.417969 20.054688 C 15.105469 19.59375 14.84375 19.109375 14.628906 18.59375 C 14.414062 18.082031 14.25 17.554688 14.140625 17.011719 C 14.03125 16.464844 13.976562 15.917969 13.976562 15.363281 C 13.976562 14.808594 14.03125 14.257812 14.140625 13.714844 C 14.25 13.171875 14.414062 12.644531 14.628906 12.128906 C 14.84375 11.617188 15.105469 11.132812 15.417969 10.671875 C 15.730469 10.210938 16.085938 9.78125 16.480469 9.390625 C 16.878906 9 17.3125 8.648438 17.777344 8.339844 C 18.246094 8.03125 18.738281 7.773438 19.257812 7.558594 C 19.777344 7.347656 20.308594 7.1875 20.859375 7.078125 C 21.410156 6.96875 21.96875 6.917969 22.53125 6.917969 C 23.089844 6.917969 23.648438 6.96875 24.199219 7.078125 C 24.75 7.1875 25.285156 7.347656 25.804688 7.558594 C 26.320312 7.773438 26.816406 8.03125 27.28125 8.339844 C 27.75 8.648438 28.179688 9 28.578125 9.390625 C 28.976562 9.78125 29.328125 10.210938 29.640625 10.671875 C 29.953125 11.132812 30.21875 11.617188 30.433594 12.128906 C 30.648438 12.644531 30.808594 13.171875 30.917969 13.714844 C 31.027344 14.257812 31.082031 14.808594 31.082031 15.363281 Z M 31.082031 15.363281 " fill-opacity="1" fill-rule="nonzero"/><g clip-path="url(#f2a8f57b9b)"><path fill="#ec6408" d="M 36.414062 2.488281 C 34.882812 5.203125 34.917969 7.867188 36.046875 11.3125 C 36.046875 11.3125 36.550781 12.9375 36.179688 14.300781 C 36.082031 14.648438 36.046875 15.007812 36.046875 15.367188 L 36.046875 26.527344 C 36.046875 27.050781 36.507812 27.476562 37.050781 27.421875 C 37.523438 27.375 37.871094 26.953125 37.871094 26.484375 L 37.871094 2.492188 C 37.871094 2.488281 37.871094 -0.0976562 36.414062 2.488281 Z M 36.414062 2.488281 " fill-opacity="1" fill-rule="nonzero"/></g><g clip-path="url(#bfe7666942)"><path fill="#ec6408" d="M 9.886719 2.601562 L 9.835938 2.601562 C 9.597656 2.601562 9.410156 7.445312 9.410156 7.445312 C 9.410156 7.648438 9.257812 7.820312 9.054688 7.851562 C 8.804688 7.886719 8.582031 7.695312 8.582031 7.445312 C 8.582031 7.445312 8.390625 2.601562 8.15625 2.601562 L 8.097656 2.601562 C 7.863281 2.601562 7.671875 7.449219 7.671875 7.449219 C 7.671875 7.695312 7.449219 7.886719 7.203125 7.855469 L 7.152344 7.847656 C 6.949219 7.820312 6.796875 7.648438 6.796875 7.441406 C 6.796875 7.441406 6.601562 2.601562 6.367188 2.601562 C 6.132812 2.601562 5.941406 7.882812 5.941406 7.882812 C 5.941406 8.542969 6.089844 9.558594 6.8125 10.148438 C 7.246094 10.5 7.34375 10.882812 7.355469 11.042969 L 7.355469 26.523438 C 7.355469 27.019531 7.765625 27.425781 8.265625 27.425781 C 8.765625 27.425781 9.175781 27.019531 9.175781 26.523438 L 9.175781 11.109375 L 9.179688 11.109375 C 9.175781 11.078125 9.179688 11.046875 9.175781 11.011719 L 9.175781 10.902344 C 9.199219 10.46875 9.378906 10.222656 9.574219 10.058594 C 10.316406 9.449219 10.316406 8.492188 10.316406 7.890625 C 10.3125 7.890625 10.121094 2.601562 9.886719 2.601562 Z M 9.886719 2.601562 " fill-opacity="1" fill-rule="nonzero"/></g></svg>